<?xml version="1.0" encoding="utf-8"?>
<!-- Generator: Adobe Illustrator 19.2.1, SVG Export Plug-In . SVG Version: 6.00 Build 0)  -->
<svg version="1.1" id="Ebene_1" xmlns="http://www.w3.org/2000/svg" xmlns:xlink="http://www.w3.org/1999/xlink" x="0px" y="0px"
	 viewBox="0 0 10.8 10.8" style="enable-background:new 0 0 10.8 10.8;" xml:space="preserve">
<style type="text/css">
	.st0{fill:#BFBFBF;}
	.st1{fill:#F2F2F2;}
	.st2{fill:#828282;}
</style>
<rect x="0.6" y="0.6" class="st0" width="9.5" height="9.5"/>
<path d="M0.6,0.6h9.5v9.5H0.6V0.6z M0,0v0.6v9.5v0.6h0.6h9.5h0.6V0H0z"/>
<rect x="0.6" y="8.9" class="st2" width="9.5" height="1.3"/>
<rect x="8.9" y="0.6" class="st2" width="1.3" height="9.5"/>
<rect x="0.6" y="0.6" class="st1" width="0.6" height="8.9"/>
<rect x="0.6" y="0.6" class="st1" width="8.9" height="0.6"/>
<rect x="6.8" y="5.3" width="0.3" height="0.3"/>
<rect x="6.4" y="5.3" width="0.3" height="0.3"/>
<rect x="6.4" y="4.9" width="0.3" height="0.3"/>
<rect x="6.4" y="5.6" width="0.3" height="0.3"/>
<rect x="6.1" y="5.3" width="0.3" height="0.3"/>
<rect x="6.1" y="4.9" width="0.3" height="0.3"/>
<rect x="6.1" y="4.6" width="0.3" height="0.3"/>
<rect x="5.8" y="4.6" width="0.3" height="0.3"/>
<rect x="5.8" y="4.3" width="0.3" height="0.3"/>
<rect x="5.5" y="4.3" width="0.3" height="0.3"/>
<rect x="5.5" y="4" width="0.3" height="0.3"/>
<rect x="6.1" y="5.6" width="0.3" height="0.3"/>
<rect x="6.1" y="5.9" width="0.3" height="0.3"/>
<rect x="5.8" y="5.9" width="0.3" height="0.3"/>
<rect x="5.8" y="6.2" width="0.3" height="0.3"/>
<rect x="5.5" y="6.2" width="0.3" height="0.3"/>
<rect x="5.5" y="6.5" width="0.3" height="0.3"/>
<rect x="5.8" y="4.9" width="0.3" height="0.3"/>
<rect x="5.8" y="5.3" width="0.3" height="0.3"/>
<rect x="5.8" y="5.6" width="0.3" height="0.3"/>
<rect x="5.5" y="4.6" width="0.3" height="0.3"/>
<rect x="5.5" y="5.9" width="0.3" height="0.3"/>
<rect x="5.5" y="4.9" width="0.3" height="0.3"/>
<rect x="5.5" y="5.3" width="0.3" height="0.3"/>
<rect x="5.5" y="5.6" width="0.3" height="0.3"/>
<rect x="5.2" y="4.6" width="0.3" height="0.3"/>
<rect x="5.2" y="5.9" width="0.3" height="0.3"/>
<rect x="5.2" y="4.9" width="0.3" height="0.3"/>
<rect x="5.2" y="5.3" width="0.3" height="0.3"/>
<rect x="5.2" y="5.6" width="0.3" height="0.3"/>
<rect x="4.9" y="4.6" width="0.3" height="0.3"/>
<rect x="4.9" y="5.9" width="0.3" height="0.3"/>
<rect x="4.9" y="4.9" width="0.3" height="0.3"/>
<rect x="4.9" y="5.3" width="0.3" height="0.3"/>
<rect x="4.9" y="5.6" width="0.3" height="0.3"/>
<rect x="4.5" y="4.6" width="0.3" height="0.3"/>
<rect x="4.5" y="5.9" width="0.3" height="0.3"/>
<rect x="4.5" y="4.9" width="0.3" height="0.3"/>
<rect x="4.5" y="5.3" width="0.3" height="0.3"/>
<rect x="4.5" y="5.6" width="0.3" height="0.3"/>
<rect x="4.2" y="4.6" width="0.3" height="0.3"/>
<rect x="4.2" y="5.9" width="0.3" height="0.3"/>
<rect x="4.2" y="4.9" width="0.3" height="0.3"/>
<rect x="4.2" y="5.3" width="0.3" height="0.3"/>
<rect x="4.2" y="5.6" width="0.3" height="0.3"/>
<rect x="3.9" y="4.6" width="0.3" height="0.3"/>
<rect x="3.9" y="5.9" width="0.3" height="0.3"/>
<rect x="3.9" y="4.9" width="0.3" height="0.3"/>
<rect x="3.9" y="5.3" width="0.3" height="0.3"/>
<rect x="3.9" y="5.6" width="0.3" height="0.3"/>
</svg>
