<?xml version="1.0" encoding="utf-8"?>

<svg version="1.1" id="Ebene_1" xmlns="http://www.w3.org/2000/svg" xmlns:xlink="http://www.w3.org/1999/xlink" x="0px" y="0px"
	 viewBox="0 0 277 200" style="enable-background:new 0 0 277 200;" xml:space="preserve">
<style type="text/css">
	.st0{fill:#FFFFFF;}
</style>
<g>
	<polygon class="st0" points="51,14.7 38.8,82.5 31.5,82.5 31.5,14.7 26.3,14.7 26.3,185.3 31.5,185.3 31.5,113.2 42.1,113.2
		55.7,185.3 61.1,185.3 43,88.8 56.4,14.7 	"/>
	<path class="st0" d="M104.8,48.8h6.6l4.5,64.3h-15.8L104.8,48.8z M102,14.7L89.7,185.3h5.4l3.1-42.9H118l3.1,42.9h5.4L114.3,14.7
		H102z"/>
	<polygon class="st0" points="159.7,14.7 159.7,185.3 182.8,185.3 182.8,151.2 164.8,151.2 164.8,14.7 	"/>
	<polygon class="st0" points="240.6,14.7 228.4,82.5 221.1,82.5 221.1,14.7 215.9,14.7 215.9,185.3 221.1,185.3 221.1,113.2
		231.7,113.2 245.3,185.3 250.7,185.3 232.6,88.8 246,14.7 	"/>
</g>
</svg>
